#!OML:ASF F:\VICON\USERDATA\Patient Classification 1\PLAYGROUND\JustinFriday\JustinFriday.ASF
:FULLY-SPECIFIED
:DEGREES
4075
root 38.1718 23.3792 -7.97541 325.112 -99.5048 -316.208
lowerback 38.1737 3.46939 -2.62607
upperback 10.783 1.87721 1.3507
thorax -6.87299 0.179119 2.1609
lowerneck -7.33888 -1.44153 -7.08115
upperneck 27.12 -2.1044 1.73715
head 9.88899 -1.73851 1.561
rclavicle 3.57812e-014 6.40087e-014
rhumerus 32.6161 12.4526 -61.173
rradius 83.3747
rwrist 11.4093
rhand -37.1097 -5.8285
rfingers 7.12502
rthumb -10.1805 -395.562
lclavicle 3.57812e-014 6.40087e-014
lhumerus 48.5538 -18.0932 57.8008
lradius 55.6173
lwrist -18.9242
lhand -18.7775 -13.1992
lfingers 7.12502
lthumb 7.51995 16.6471
rfemur -57.405 -2.86013 25.2517
rtibia 100.462
rfoot -5.57783 -7.94967
rtoes 15.5796
lfemur -22.6403 7.57444 -16.3425
ltibia 22.7206
lfoot -4.61261 -5.58083
ltoes 12.2459
4076
root 38.1819 23.3632 -7.98947 324.256 -99.3739 -315.321
lowerback 38.1886 3.43758 -2.51279
upperback 10.7315 1.88119 1.26162
thorax -6.92799 0.189969 2.00543
lowerneck -7.2348 -1.46532 -6.92804
upperneck 27.1239 -2.20503 1.86003
head 9.87287 -1.75715 1.5683
rclavicle -3.97569e-015 2.26615e-014
rhumerus 31.0108 13.5701 -61.2148
rradius 83.0901
rwrist 11.8778
rhand -36.633 -5.1509
rfingers 7.12502
rthumb -9.72056 -394.907
lclavicle -3.97569e-015 2.26615e-014
lhumerus 49.0738 -18.5863 56.7146
lradius 55.4249
lwrist -18.5187
lhand -19.2709 -12.261
lfingers 7.12502
lthumb 7.04365 17.6018
rfemur -56.2087 -2.86684 25.1287
rtibia 99.466
rfoot -2.83812 -7.97348
rtoes 15.9687
lfemur -22.9896 7.57791 -16.2854
ltibia 23.2139
lfoot -4.85066 -5.78939
ltoes 12.7521
4077
root 38.1956 23.3638 -8.00015 322.562 -99.3479 -313.463
lowerback 38.0184 3.36613 -2.17318
upperback 10.694 1.93906 1.24948
thorax -6.90599 0.228065 1.79562
lowerneck -7.21196 -1.55209 -7.14258
upperneck 27.243 -2.37778 2.17355
head 9.92628 -1.82685 1.69775
rclavicle -6.36111e-015 2.38542e-015
rhumerus 29.5047 14.5601 -61.168
rradius 82.6188
rwrist 12.0759
rhand -36.532 -4.59406
rfingers 7.12502
rthumb -9.62307 -394.354
lclavicle -6.36111e-015 2.38542e-015
lhumerus 49.9783 -19.108 56.9587
lradius 54.4987
lwrist -19.175
lhand -19.3592 -11.7417
lfingers 7.12502
lthumb 6.95837 18.1239
rfemur -55.0062 -2.77124 25.1754
rtibia 98.1787
rfoot -0.289555 -8.15001
rtoes 17.5971
lfemur -23.4448 6.812 -15.684
ltibia 23.8402
lfoot -4.97341 -5.62158
ltoes 17.4204
4078
root 38.2049 23.3425 -8.01459 320.68 -99.3501 -311.359
lowerback 37.7039 3.27389 -1.98603
upperback 10.6831 1.93388 1.36872
thorax -6.81351 0.232176 1.82995
lowerneck -7.11587 -1.58996 -7.70674
upperneck 27.1846 -2.41674 2.47707
head 9.90156 -1.86737 1.8978
rclavicle 8.74653e-015 1.31198e-014
rhumerus 28.3137 15.7808 -61.0716
rradius 81.9692
rwrist 12.2552
rhand -36.642 -4.81352
rfingers 7.12502
rthumb -9.72925 -394.569
lclavicle 8.74653e-015 1.31198e-014
lhumerus 51.5674 -19.6443 58.6869
lradius 52.2095
lwrist -20.9178
lhand -19.3845 -11.3223
lfingers 7.12502
lthumb 6.93396 18.5442
rfemur -53.8787 -2.64077 25.3032
rtibia 96.8597
rfoot 2.05096 -8.57708
rtoes 18.9333
lfemur -23.9896 6.84185 -15.4734
ltibia 24.1986
lfoot -5.06096 -5.98116
ltoes 12.4313
4079
root 38.2124 23.3212 -8.03517 319.966 -99.1882 -310.424
lowerback 37.4057 3.20696 -2.1458
upperback 10.647 1.82945 1.40797
thorax -6.75534 0.190829 1.9969
lowerneck -6.99105 -1.36869 -7.71038
upperneck 27.124 -2.12537 2.49817
head 9.83781 -1.73452 1.93686
rclavicle -7.95139e-015 -1.86858e-014
rhumerus 27.2705 17.1643 -61.1216
rradius 81.1356
rwrist 12.9145
rhand -36.904 -5.31736
rfingers 7.12502
rthumb -9.98203 -395.061
lclavicle -7.95139e-015 -1.86858e-014
lhumerus 51.6969 -19.5159 58.2659
lradius 52.1923
lwrist -20.4556
lhand -19.4256 -11.424
lfingers 7.12502
lthumb 6.89433 18.4437
rfemur -52.7673 -2.54468 25.2198
rtibia 95.3914
rfoot 4.5078 -8.89496
rtoes 18.9644
lfemur -24.6904 6.85972 -15.5723
ltibia 24.8956
lfoot -5.56336 -6.46925
ltoes -0.444662
4080
root 38.2234 23.233 -8.05662 318.064 -99.17 -308.426
lowerback 37.2926 3.14558 -1.91684
upperback 10.6361 1.8452 1.36924
thorax -6.72191 0.205607 1.8317
lowerneck -6.83486 -1.33101 -7.45537
upperneck 27.0184 -2.16518 2.66154
head 9.7673 -1.70896 1.94709
rclavicle 3.18055e-014 1.98785e-015
rhumerus 26.0512 18.2049 -61.1568
rradius 80.2764
rwrist 13.6808
rhand -37.4412 -5.9421
rfingers 7.12502
rthumb -10.5003 -395.66
lclavicle 3.18055e-014 1.98785e-015
lhumerus 52.1815 -19.7407 58.0664
lradius 51.7752
lwrist -20.4273
lhand -19.5847 -11.6946
lfingers 7.12502
lthumb 6.74077 18.1781
rfemur -51.765 -2.48851 25.4326
rtibia 94.1558
rfoot 6.86238 -9.07598
rtoes 17.3355
lfemur -25.3617 8.52807 -16.4074
ltibia 25.152
lfoot -7.00902 -5.72382
ltoes -3.25094
4081
root 38.235 23.2494 -8.07052 316.759 -99.1862 -307.156
lowerback 37.2601 3.18534 -1.91151
upperback 10.6859 1.90238 1.47182
thorax -6.66285 0.227183 1.91667
lowerneck -7.13374 -1.55634 -8.43988
upperneck 27.1238 -2.43523 3.27156
head 9.90163 -1.86138 2.3022
rclavicle 2.70347e-014 6.36111e-015
rhumerus 25.2068 19.3157 -61.0243
rradius 79.1887
rwrist 14.4583
rhand -37.749 -6.56785
rfingers 7.12502
rthumb -10.7972 -396.27
lclavicle 2.70347e-014 6.36111e-015
lhumerus 52.5909 -19.7791 58.0258
lradius 51.4003
lwrist -20.4574
lhand -19.6693 -12.6588
lfingers 7.12502
lthumb 6.65902 17.2165
rfemur -50.0286 -2.44039 25.5614
rtibia 92.0927
rfoot 9.18319 -9.22337
rtoes 16.2538
lfemur -25.4716 7.29422 -15.4497
ltibia 25.979
lfoot -6.73629 -5.83733
ltoes 15.821
4082
root 38.245 23.204 -8.09225 316.825 -98.9842 -307.218
lowerback 37.157 3.23028 -2.34067
upperback 10.705 1.82101 1.55853
thorax -6.61919 0.184131 2.26365
lowerneck -6.90735 -1.49656 -8.23874
upperneck 26.9667 -2.292 2.83029
head 9.7865 -1.82169 2.12682
rclavicle -6.75868e-014 -3.10104e-014
rhumerus 24.8502 20.4837 -61.2839
rradius 77.6765
rwrist 15.5073
rhand -37.5191 -6.84642
rfingers 7.12502
rthumb -10.5754 -396.56
lclavicle -6.75868e-014 -3.10104e-014
lhumerus 51.3349 -18.9421 55.3717
lradius 53.6843
lwrist -17.892
lhand -19.655 -13.5917
lfingers 7.12502
lthumb 6.67291 16.2831
rfemur -48.6617 -2.36998 25.3201
rtibia 90.3258
rfoot 11.0033 -9.55736
rtoes 16.8957
lfemur -25.9014 8.14896 -15.9081
ltibia 26.4134
lfoot -6.97252 -6.49504
ltoes 15.2877
4083
root 38.2545 23.2477 -8.11258 316.696 -98.7478 -307.035
lowerback 37.1146 3.07169 -2.18716
upperback 10.6125 1.66241 1.16153
thorax -6.6787 0.131261 1.82248
lowerneck -6.66808 -1.4001 -7.67069
upperneck 27.0522 -2.29015 2.83743
head 9.75959 -1.77246 2.03405
rclavicle -5.56597e-015 -1.59028e-014
rhumerus 24.0998 21.1866 -62.3396
rradius 76.217
rwrist 16.4586
rhand -37.5575 -8.25305
rfingers 7.12502
rthumb -10.6125 -397.965
lclavicle -5.56597e-015 -1.59028e-014
lhumerus 53.24 -19.7254 56.3766
lradius 51.133
lwrist -19.3708
lhand -20.0888 -12.3598
lfingers 7.12502
lthumb 6.25404 17.5279
rfemur -46.8753 -2.26274 25.0486
rtibia 87.8121
rfoot 12.4056 -10.4752
rtoes 18.9755
lfemur -26.1536 5.60966 -14.5159
ltibia 27.7437
lfoot -6.84991 -6.52816
ltoes 32.5873
4084
root 38.2699 23.1628 -8.13416 315.609 -98.5506 -305.91
lowerback 37.3163 2.49926 -1.04586
upperback 10.4327 1.26924 0.0421013
thorax -6.87326 -0.00388265 0.188002
lowerneck -6.65362 -1.33131 -6.74247
upperneck 27.4394 -2.553 3.50372
head 9.89755 -1.74572 2.08466
rclavicle 2.38542e-014 5.56597e-015
rhumerus 22.9406 21.4007 -64.4659
rradius 74.9141
rwrist 17.1928
rhand -37.5959 -9.85222
rfingers 7.12502
rthumb -10.6495 -399.562
lclavicle 2.38542e-014 5.56597e-015
lhumerus 54.5976 -20.8529 55.7339
lradius 49.9011
lwrist -20.1426
lhand -20.1957 -10.6276
lfingers 7.12502
lthumb 6.15088 19.2631
rfemur -45.6459 -2.19204 24.879
rtibia 85.9182
rfoot 13.4344 -11.5024
rtoes 20.6031
lfemur -27.0935 7.57074 -15.765
ltibia 28.4556
lfoot -7.47458 -7.1036
ltoes 20.4569
